<svg id="mermaid-1786969091280" width="100%" xmlns="http://www.w3.org/2000/svg" xmlns:xlink="http://www.w3.org/1999/xlink" height="532.2638549804688" style="max-width: 890.75px;" viewBox="0 0 890.75 532.2638549804688"><style>#mermaid-1786969091280{font-family:"trebuchet ms",verdana,arial,sans-serif;font-size:16px;fill:#333;}#mermaid-1786969091280 .error-icon{fill:#552222;}#mermaid-1786969091280 .error-text{fill:#552222;stroke:#552222;}#mermaid-1786969091280 .edge-thickness-normal{stroke-width:2px;}#mermaid-1786969091280 .edge-thickness-thick{stroke-width:3.5px;}#mermaid-1786969091280 .edge-pattern-solid{stroke-dasharray:0;}#mermaid-1786969091280 .edge-pattern-dashed{stroke-dasharray:3;}#mermaid-1786969091280 .edge-pattern-dotted{stroke-dasharray:2;}#mermaid-1786969091280 .marker{fill:#333333;}#mermaid-1786969091280 .marker.cross{stroke:#333333;}#mermaid-1786969091280 svg{font-family:"trebuchet ms",verdana,arial,sans-serif;font-size:16px;}#mermaid-1786969091280 .label{font-family:"trebuchet ms",verdana,arial,sans-serif;color:#333;}#mermaid-1786969091280 .label text{fill:#333;}#mermaid-1786969091280 .node rect,#mermaid-1786969091280 .node circle,#mermaid-1786969091280 .node ellipse,#mermaid-1786969091280 .node polygon,#mermaid-1786969091280 .node path{fill:#ECECFF;stroke:#9370DB;stroke-width:1px;}#mermaid-1786969091280 .node .label{text-align:center;}#mermaid-1786969091280 .node.clickable{cursor:pointer;}#mermaid-1786969091280 .arrowheadPath{fill:#333333;}#mermaid-1786969091280 .edgePath .path{stroke:#333333;stroke-width:1.5px;}#mermaid-1786969091280 .flowchart-link{stroke:#333333;fill:none;}#mermaid-1786969091280 .edgeLabel{background-color:#e8e8e8;text-align:center;}#mermaid-1786969091280 .edgeLabel rect{opacity:0.5;background-color:#e8e8e8;fill:#e8e8e8;}#mermaid-1786969091280 .cluster rect{fill:#ffffde;stroke:#aaaa33;stroke-width:1px;}#mermaid-1786969091280 .cluster text{fill:#333;}#mermaid-1786969091280 div.mermaidTooltip{position:absolute;text-align:center;max-width:200px;padding:2px;font-family:"trebuchet ms",verdana,arial,sans-serif;font-size:12px;background:hsl(80,100%,96.2745098039%);border:1px solid #aaaa33;border-radius:2px;pointer-events:none;z-index:100;}#mermaid-1786969091280:root{--mermaid-font-family:"trebuchet ms",verdana,arial,sans-serif;}#mermaid-1786969091280 flowchart-v2{fill:apa;}</style><g transform="translate(0, 0)"><marker id="flowchart-pointEnd" class="marker flowchart" viewBox="0 0 10 10" refX="9" refY="5" markerUnits="userSpaceOnUse" markerWidth="12" markerHeight="12" orient="auto"><path d="M 0 0 L 10 5 L 0 10 z" class="arrowMarkerPath" style="stroke-width: 1; stroke-dasharray: 1, 0;"></path></marker><marker id="flowchart-pointStart" class="marker flowchart" viewBox="0 0 10 10" refX="0" refY="5" markerUnits="userSpaceOnUse" markerWidth="12" markerHeight="12" orient="auto"><path d="M 0 5 L 10 10 L 10 0 z" class="arrowMarkerPath" style="stroke-width: 1; stroke-dasharray: 1, 0;"></path></marker><marker id="flowchart-circleEnd" class="marker flowchart" viewBox="0 0 10 10" refX="11" refY="5" markerUnits="userSpaceOnUse" markerWidth="11" markerHeight="11" orient="auto"><circle cx="5" cy="5" r="5" class="arrowMarkerPath" style="stroke-width: 1; stroke-dasharray: 1, 0;"></circle></marker><marker id="flowchart-circleStart" class="marker flowchart" viewBox="0 0 10 10" refX="-1" refY="5" markerUnits="userSpaceOnUse" markerWidth="11" markerHeight="11" orient="auto"><circle cx="5" cy="5" r="5" class="arrowMarkerPath" style="stroke-width: 1; stroke-dasharray: 1, 0;"></circle></marker><marker id="flowchart-crossEnd" class="marker cross flowchart" viewBox="0 0 11 11" refX="12" refY="5.2" markerUnits="userSpaceOnUse" markerWidth="11" markerHeight="11" orient="auto"><path d="M 1,1 l 9,9 M 10,1 l -9,9" class="arrowMarkerPath" style="stroke-width: 2; stroke-dasharray: 1, 0;"></path></marker><marker id="flowchart-crossStart" class="marker cross flowchart" viewBox="0 0 11 11" refX="-1" refY="5.2" markerUnits="userSpaceOnUse" markerWidth="11" markerHeight="11" orient="auto"><path d="M 1,1 l 9,9 M 10,1 l -9,9" class="arrowMarkerPath" style="stroke-width: 2; stroke-dasharray: 1, 0;"></path></marker><g class="root"><g class="clusters"></g><g class="edgePaths"><path d="M228,41L228,46.666666666666664C228,52.333333333333336,228,63.666666666666664,228,75C228,86.33333333333333,228,97.66666666666667,228,103.33333333333333L228,109" id="L-A-B" class=" edge-thickness-normal edge-pattern-solid flowchart-link LS-A LE-B" style="fill:none;" marker-end="url(#flowchart-pointEnd)"></path><path d="M660.5,41L660.5,46.666666666666664C660.5,52.333333333333336,660.5,63.666666666666664,660.5,75C660.5,86.33333333333333,660.5,97.66666666666667,660.5,103.33333333333333L660.5,109" id="L-A2-C" class=" edge-thickness-normal edge-pattern-solid flowchart-link LS-A2 LE-C" style="fill:none;" marker-end="url(#flowchart-pointEnd)"></path><path d="M220.04819277108433,142L218.04016064257027,146.16666666666666C216.03212851405624,150.33333333333334,212.01606425702812,158.66666666666666,211.0120481927711,167C210.00803212851406,175.33333333333334,212.01606425702812,183.66666666666666,213.02008032128515,187.83333333333334L214.02409638554218,192" id="L-B-D" class=" edge-thickness-normal edge-pattern-solid flowchart-link LS-B LE-D" style="fill:none;" marker-end="url(#flowchart-pointEnd)"></path><path d="M609,134.946408839779L579.875,140.28867403314916C550.75,145.63093922651933,492.5,156.31546961325967,441.6631526104418,165.8244014732965C390.82630522088357,175.33333333333334,347.4026104417671,183.66666666666666,325.69076305220887,187.83333333333334L303.9789156626506,192" id="L-C-D" class=" edge-thickness-normal edge-pattern-solid flowchart-link LS-C LE-D" style="fill:none;" marker-end="url(#flowchart-pointEnd)"></path><path d="M308.5,140.2657458563536L332.7916666666667,144.72145488029466C357.0833333333333,149.17716390423573,405.6666666666667,158.08858195211786,451.67018072289153,166.7109576427256C497.67369477911643,175.33333333333334,541.097389558233,183.66666666666666,562.8092369477912,187.83333333333334L584.5210843373494,192" id="L-B-E" class=" edge-thickness-normal edge-pattern-solid flowchart-link LS-B LE-E" style="fill:none;" marker-end="url(#flowchart-pointEnd)"></path><path d="M668.4518072289156,142L670.4598393574297,146.16666666666666C672.4678714859438,150.33333333333334,676.4839357429719,158.66666666666666,677.4879518072289,167C678.4919678714859,175.33333333333334,676.4839357429719,183.66666666666666,675.4799196787149,187.83333333333334L674.4759036144578,192" id="L-C-E" class=" edge-thickness-normal edge-pattern-solid flowchart-link LS-C LE-E" style="fill:none;" marker-end="url(#flowchart-pointEnd)"></path><path d="M165.41867469879517,225L152.14056224899596,229.16666666666666C138.86244979919678,233.33333333333334,112.30622489959838,241.66666666666666,99.0281124497992,250.9434611002604C85.75,260.2202555338542,85.75,270.4405110677083,85.75,275.55063883463544L85.75,280.6607666015625" id="L-D-F" class=" edge-thickness-normal edge-pattern-solid flowchart-link LS-D LE-F" style="fill:none;" marker-end="url(#flowchart-pointEnd)"></path><path d="M576.5692771084338,225L552.8493975903615,229.16666666666666C529.1295180722892,233.33333333333334,481.68975903614455,241.66666666666666,457.9698795180723,250C434.25,258.3333333333333,434.25,266.6666666666667,434.25,270.8333333333333L434.25,275" id="L-E-G" class=" edge-thickness-normal edge-pattern-solid flowchart-link LS-E LE-G" style="fill:none;" marker-end="url(#flowchart-pointEnd)"></path><path d="M359.5421686746988,225L395.28514056224896,229.16666666666666C431.0281124497992,233.33333333333334,502.5140562248996,241.66666666666666,566.627682662416,254.18865394592285C630.7413090999324,266.710641225179,687.4826181998648,283.4212824503581,715.853272749831,291.7766030629476L744.2239272997973,300.1319236755371" id="L-D-H" class=" edge-thickness-normal edge-pattern-solid flowchart-link LS-D LE-H" style="fill:none;" marker-end="url(#flowchart-pointEnd)"></path><path d="M726.0632530120482,225L740.0943775100401,229.16666666666666C754.1255020080322,233.33333333333334,782.1877510040161,241.66666666666666,794.9649239196891,254.18865394592285C807.7420968353621,266.710641225179,805.2341936707243,283.4212824503581,803.9802420884052,291.7766030629476L802.7262905060863,300.1319236755371" id="L-E-H" class=" edge-thickness-normal edge-pattern-solid flowchart-link LS-E LE-H" style="fill:none;" marker-end="url(#flowchart-pointEnd)"></path><path d="M800.25,333.1319236755371L800.25,341.48724428812665C800.25,349.8425649007161,800.25,366.5532061258952,800.25,379.07519340515137C800.25,391.59718068440753,800.25,399.9305140177409,800.25,404.09718068440753L800.25,408.2638473510742" id="L-H-I" class=" edge-thickness-normal edge-pattern-solid flowchart-link LS-H LE-I" style="fill:none;" marker-end="url(#flowchart-pointEnd)"></path><path d="M800.25,441.2638473510742L800.25,445.4305140177409C800.25,449.59718068440753,800.25,457.9305140177409,800.25,466.2638473510742C800.25,474.59718068440753,800.25,482.9305140177409,800.25,487.09718068440753L800.25,491.2638473510742" id="L-I-J" class=" edge-thickness-normal edge-pattern-solid flowchart-link LS-I LE-J" style="fill:none;" marker-end="url(#flowchart-pointEnd)"></path></g><g class="edgeLabels"><g class="edgeLabel" transform="translate(228, 75)"><g class="label" transform="translate(-38.5, -9)"><foreignObject width="77" height="18"><div xmlns="http://www.w3.org/1999/xhtml" style="display: inline-block; white-space: nowrap;"><span class="edgeLabel">WS events</span></div></foreignObject></g></g><g class="edgeLabel" transform="translate(660.5, 75)"><g class="label" transform="translate(-13, -9)"><foreignObject width="26" height="18"><div xmlns="http://www.w3.org/1999/xhtml" style="display: inline-block; white-space: nowrap;"><span class="edgeLabel">poll</span></div></foreignObject></g></g><g class="edgeLabel"><g class="label" transform="translate(0, 0)"><foreignObject width="0" height="0"><div xmlns="http://www.w3.org/1999/xhtml" style="display: inline-block; white-space: nowrap;"><span class="edgeLabel"></span></div></foreignObject></g></g><g class="edgeLabel"><g class="label" transform="translate(0, 0)"><foreignObject width="0" height="0"><div xmlns="http://www.w3.org/1999/xhtml" style="display: inline-block; white-space: nowrap;"><span class="edgeLabel"></span></div></foreignObject></g></g><g class="edgeLabel"><g class="label" transform="translate(0, 0)"><foreignObject width="0" height="0"><div xmlns="http://www.w3.org/1999/xhtml" style="display: inline-block; white-space: nowrap;"><span class="edgeLabel"></span></div></foreignObject></g></g><g class="edgeLabel"><g class="label" transform="translate(0, 0)"><foreignObject width="0" height="0"><div xmlns="http://www.w3.org/1999/xhtml" style="display: inline-block; white-space: nowrap;"><span class="edgeLabel"></span></div></foreignObject></g></g><g class="edgeLabel"><g class="label" transform="translate(0, 0)"><foreignObject width="0" height="0"><div xmlns="http://www.w3.org/1999/xhtml" style="display: inline-block; white-space: nowrap;"><span class="edgeLabel"></span></div></foreignObject></g></g><g class="edgeLabel"><g class="label" transform="translate(0, 0)"><foreignObject width="0" height="0"><div xmlns="http://www.w3.org/1999/xhtml" style="display: inline-block; white-space: nowrap;"><span class="edgeLabel"></span></div></foreignObject></g></g><g class="edgeLabel"><g class="label" transform="translate(0, 0)"><foreignObject width="0" height="0"><div xmlns="http://www.w3.org/1999/xhtml" style="display: inline-block; white-space: nowrap;"><span class="edgeLabel"></span></div></foreignObject></g></g><g class="edgeLabel"><g class="label" transform="translate(0, 0)"><foreignObject width="0" height="0"><div xmlns="http://www.w3.org/1999/xhtml" style="display: inline-block; white-space: nowrap;"><span class="edgeLabel"></span></div></foreignObject></g></g><g class="edgeLabel"><g class="label" transform="translate(0, 0)"><foreignObject width="0" height="0"><div xmlns="http://www.w3.org/1999/xhtml" style="display: inline-block; white-space: nowrap;"><span class="edgeLabel"></span></div></foreignObject></g></g><g class="edgeLabel"><g class="label" transform="translate(0, 0)"><foreignObject width="0" height="0"><div xmlns="http://www.w3.org/1999/xhtml" style="display: inline-block; white-space: nowrap;"><span class="edgeLabel"></span></div></foreignObject></g></g></g><g class="nodes"><g class="node default default" id="flowchart-A-24" transform="translate(228, 24.5)"><rect class="basic label-container" style="" rx="0" ry="0" x="-78" y="-16.5" width="156" height="33"></rect><g class="label" style="" transform="translate(-70.5, -9)"><foreignObject width="141" height="18"><div xmlns="http://www.w3.org/1999/xhtml" style="display: inline-block; white-space: nowrap;"><span class="nodeLabel">Binance WS stream</span></div></foreignObject></g></g><g class="node default default" id="flowchart-B-25" transform="translate(228, 125.5)"><rect class="basic label-container" style="" rx="5" ry="5" x="-80.5" y="-16.5" width="161" height="33"></rect><g class="label" style="" transform="translate(-73, -9)"><foreignObject width="146" height="18"><div xmlns="http://www.w3.org/1999/xhtml" style="display: inline-block; white-space: nowrap;"><span class="nodeLabel">WebSocketCollector</span></div></foreignObject></g></g><g class="node default default" id="flowchart-A2-26" transform="translate(660.5, 24.5)"><rect class="basic label-container" style="" rx="0" ry="0" x="-76" y="-16.5" width="152" height="33"></rect><g class="label" style="" transform="translate(-68.5, -9)"><foreignObject width="137" height="18"><div xmlns="http://www.w3.org/1999/xhtml" style="display: inline-block; white-space: nowrap;"><span class="nodeLabel">Binance REST API</span></div></foreignObject></g></g><g class="node default default" id="flowchart-C-27" transform="translate(660.5, 125.5)"><rect class="basic label-container" style="" rx="5" ry="5" x="-51.5" y="-16.5" width="103" height="33"></rect><g class="label" style="" transform="translate(-44, -9)"><foreignObject width="88" height="18"><div xmlns="http://www.w3.org/1999/xhtml" style="display: inline-block; white-space: nowrap;"><span class="nodeLabel">REST poller</span></div></foreignObject></g></g><g class="node default default" id="flowchart-D-29" transform="translate(218, 208.5)"><rect class="basic label-container" style="" rx="0" ry="0" x="-210" y="-16.5" width="420" height="33"></rect><g class="label" style="" transform="translate(-202.5, -9)"><foreignObject width="405" height="18"><div xmlns="http://www.w3.org/1999/xhtml" style="display: inline-block; white-space: nowrap;"><span class="nodeLabel">Persist trades via INSERT ON CONFLICT DO NOTHING</span></div></foreignObject></g></g><g class="node default default" id="flowchart-E-33" transform="translate(670.5, 208.5)"><rect class="basic label-container" style="" rx="0" ry="0" x="-192.5" y="-16.5" width="385" height="33"></rect><g class="label" style="" transform="translate(-185, -9)"><foreignObject width="370" height="18"><div xmlns="http://www.w3.org/1999/xhtml" style="display: inline-block; white-space: nowrap;"><span class="nodeLabel">Persist snapshots as jsonb + bids_count/asks_count</span></div></foreignObject></g></g><g class="node default default" id="flowchart-F-37" label-offset-y="12.98076923076923" transform="translate(85.75, 316.6319236755371)"><path d="M 0,12.98076923076923 a 67.5,12.98076923076923 0,0,0 135 0 a 67.5,12.98076923076923 0,0,0 -135 0 l 0,45.980769230769226 a 67.5,12.98076923076923 0,0,0 135 0 l 0,-45.980769230769226" transform="translate(-67.5,-35.97115384615384)"></path><g class="label" style="" transform="translate(-60, -9)"><foreignObject width="120" height="18"><div xmlns="http://www.w3.org/1999/xhtml" style="display: inline-block; white-space: nowrap;"><span class="nodeLabel">Postgres - trades</span></div></foreignObject></g></g><g class="node default default" id="flowchart-G-39" label-offset-y="16.75461741424802" transform="translate(434.25, 316.6319236755371)"><path d="M 0,16.75461741424802 a 127,16.75461741424802 0,0,0 254 0 a 127,16.75461741424802 0,0,0 -254 0 l 0,49.75461741424802 a 127,16.75461741424802 0,0,0 254 0 l 0,-49.75461741424802" transform="translate(-127,-41.63192612137203)"></path><g class="label" style="" transform="translate(-119.5, -9)"><foreignObject width="239" height="18"><div xmlns="http://www.w3.org/1999/xhtml" style="display: inline-block; white-space: nowrap;"><span class="nodeLabel">Postgres - order_book_snapshots</span></div></foreignObject></g></g><g class="node default default" id="flowchart-H-41" transform="translate(800.25, 316.6319236755371)"><rect class="basic label-container" style="" rx="0" ry="0" x="-82.5" y="-16.5" width="165" height="33"></rect><g class="label" style="" transform="translate(-75, -9)"><foreignObject width="150" height="18"><div xmlns="http://www.w3.org/1999/xhtml" style="display: inline-block; white-space: nowrap;"><span class="nodeLabel">metrics.inc_snapshot</span></div></foreignObject></g></g><g class="node default default" id="flowchart-I-45" transform="translate(800.25, 424.7638473510742)"><rect class="basic label-container" style="" rx="0" ry="0" x="-76.5" y="-16.5" width="153" height="33"></rect><g class="label" style="" transform="translate(-69, -9)"><foreignObject width="138" height="18"><div xmlns="http://www.w3.org/1999/xhtml" style="display: inline-block; white-space: nowrap;"><span class="nodeLabel">Prometheus scrape</span></div></foreignObject></g></g><g class="node default default" id="flowchart-J-47" transform="translate(800.25, 507.7638473510742)"><rect class="basic label-container" style="" rx="0" ry="0" x="-82" y="-16.5" width="164" height="33"></rect><g class="label" style="" transform="translate(-74.5, -9)"><foreignObject width="149" height="18"><div xmlns="http://www.w3.org/1999/xhtml" style="display: inline-block; white-space: nowrap;"><span class="nodeLabel">Alertmanager / Alerts</span></div></foreignObject></g></g></g></g></g></svg>